<svg width="32" height="32" viewBox="0 0 32 32" fill="none" xmlns="http://www.w3.org/2000/svg">
<path d="M26.3499 27.397H5.6499C5.22803 27.397 4.88428 27.0532 4.88428 26.6313V15.6782H27.1124V26.6282C27.1155 27.0532 26.7718 27.397 26.3499 27.397Z" fill="#68A240"/>
<path d="M26.3123 27.575H5.6873C5.14668 27.575 4.70605 27.1344 4.70605 26.5938V15.5H27.2967V26.5938C27.2936 27.1344 26.8529 27.575 26.3123 27.575ZM5.06543 15.8594V26.5938C5.06543 26.9375 5.34355 27.2156 5.6873 27.2156H26.3123C26.6561 27.2156 26.9342 26.9375 26.9342 26.5938V15.8594H5.06543Z" fill="#333336"/>
<path d="M15.178 26.1218H6.4999C6.30615 26.1218 6.1499 25.9655 6.1499 25.7718V16.3062H15.5312V25.7687C15.5312 25.9624 15.3749 26.1218 15.178 26.1218Z" fill="#68A240"/>
<path d="M15.1625 26.3H6.51562C6.2125 26.3 5.96875 26.0531 5.96875 25.7531V16.125H15.7125V25.7531C15.7125 26.0562 15.4656 26.3 15.1625 26.3ZM6.32812 16.4844V25.7531C6.32812 25.8562 6.4125 25.9406 6.51562 25.9406H15.1625C15.2656 25.9406 15.35 25.8562 15.35 25.7531V16.4844H6.32812Z" fill="#333336"/>
<path d="M25.4282 26.1218H16.747C16.5532 26.1218 16.397 25.9655 16.397 25.7718V16.3062H25.7813V25.7687C25.7782 25.9624 25.622 26.1218 25.4282 26.1218Z" fill="#68A240"/>
<path d="M25.4125 26.3H16.7656C16.4625 26.3 16.2188 26.0531 16.2188 25.7531V16.125H25.9625V25.7531C25.9594 26.0562 25.7125 26.3 25.4125 26.3ZM16.5781 16.4844V25.7531C16.5781 25.8562 16.6625 25.9406 16.7656 25.9406H25.4125C25.5156 25.9406 25.6 25.8562 25.6 25.7531V16.4844H16.5781Z" fill="#333336"/>
<path d="M25.1937 18.4218H6.80615C5.74365 18.4218 4.88428 17.5624 4.88428 16.4999V10.828C4.88428 10.678 5.00615 10.5562 5.15615 10.5562H26.8374C26.9874 10.5562 27.1093 10.678 27.1093 10.828V16.4999C27.1155 17.5624 26.253 18.4218 25.1937 18.4218Z" fill="#FFD632"/>
<path d="M25.1029 18.6031H6.89668C5.6873 18.6031 4.70605 17.6188 4.70605 16.4125V10.8406C4.70605 10.5844 4.91543 10.375 5.17168 10.375H26.8279C27.0842 10.375 27.2936 10.5844 27.2936 10.8406V16.4094C27.2936 17.6187 26.3123 18.6031 25.1029 18.6031ZM5.17168 10.7344C5.1123 10.7344 5.06543 10.7812 5.06543 10.8406V16.4094C5.06543 17.4187 5.8873 18.2406 6.89668 18.2406H25.1029C26.1123 18.2406 26.9342 17.4187 26.9342 16.4094V10.8406C26.9342 10.7812 26.8873 10.7344 26.8279 10.7344H5.17168Z" fill="#333336"/>
<path d="M12.4158 21.0938H9.2627C9.2377 21.0938 9.21582 21.0719 9.21582 21.0469V16.9531C9.21582 16.9281 9.2377 16.9062 9.2627 16.9062H12.4158C12.4408 16.9062 12.4627 16.9281 12.4627 16.9531V21.0469C12.4627 21.0719 12.4439 21.0938 12.4158 21.0938Z" fill="#D5D9CF"/>
<path d="M12.4157 21.2718H9.26572C9.14072 21.2718 9.0376 21.1687 9.0376 21.0437V16.9562C9.0376 16.8312 9.14072 16.728 9.26572 16.728H12.4157C12.5407 16.728 12.6438 16.8312 12.6438 16.9562V21.0437C12.6438 21.1718 12.5407 21.2718 12.4157 21.2718ZM9.39697 20.9124H12.2845V17.0874H9.39697V20.9124Z" fill="#333336"/>
<path d="M12.5782 18.953H9.1001C8.94385 18.953 8.81885 18.828 8.81885 18.6718V18.3687C8.81885 18.2124 8.94385 18.0874 9.1001 18.0874H12.5782C12.7345 18.0874 12.8595 18.2124 12.8595 18.3687V18.6718C12.8595 18.8249 12.7345 18.953 12.5782 18.953Z" fill="#D8A128"/>
<path d="M12.5658 19.1314H9.1127C8.8502 19.1314 8.6377 18.9189 8.6377 18.6564V18.3783C8.6377 18.1158 8.8502 17.9033 9.1127 17.9033H12.5658C12.8283 17.9033 13.0408 18.1158 13.0408 18.3783V18.6564C13.0408 18.9189 12.8283 19.1314 12.5658 19.1314ZM9.1127 18.2658C9.0502 18.2658 8.99707 18.3158 8.99707 18.3814V18.6596C8.99707 18.7221 9.04707 18.7752 9.1127 18.7752H12.5658C12.6283 18.7752 12.6814 18.7252 12.6814 18.6596V18.3814C12.6814 18.3189 12.6314 18.2658 12.5658 18.2658H9.1127ZM10.8408 20.4377C10.7408 20.4377 10.6596 20.3564 10.6596 20.2564V19.7689C10.6596 19.6689 10.7408 19.5877 10.8408 19.5877C10.9408 19.5877 11.0221 19.6689 11.0221 19.7689V20.2564C11.0189 20.3564 10.9377 20.4377 10.8408 20.4377Z" fill="#333336"/>
<path d="M22.6155 21.0938H19.4624C19.4374 21.0938 19.4155 21.0719 19.4155 21.0469V16.9531C19.4155 16.9281 19.4374 16.9062 19.4624 16.9062H22.6155C22.6405 16.9062 22.6624 16.9281 22.6624 16.9531V21.0469C22.6624 21.0719 22.6437 21.0938 22.6155 21.0938Z" fill="#D5D9CF"/>
<path d="M22.6154 21.2718H19.4654C19.3404 21.2718 19.2373 21.1687 19.2373 21.0437V16.9562C19.2373 16.8312 19.3404 16.728 19.4654 16.728H22.6154C22.7404 16.728 22.8436 16.8312 22.8436 16.9562V21.0437C22.8436 21.1718 22.7404 21.2718 22.6154 21.2718ZM19.5967 20.9124H22.4842V17.0874H19.5967V20.9124Z" fill="#333336"/>
<path d="M22.7811 18.953H19.2998C19.1436 18.953 19.0186 18.828 19.0186 18.6718V18.3687C19.0186 18.2124 19.1436 18.0874 19.2998 18.0874H22.7811C22.9373 18.0874 23.0623 18.2124 23.0623 18.3687V18.6718C23.0623 18.8249 22.9342 18.953 22.7811 18.953Z" fill="#D8A128"/>
<path d="M22.7655 19.1314H19.3124C19.0499 19.1314 18.8374 18.9189 18.8374 18.6564V18.3783C18.8374 18.1158 19.0499 17.9033 19.3124 17.9033H22.7655C23.028 17.9033 23.2405 18.1158 23.2405 18.3783V18.6564C23.2405 18.9189 23.028 19.1314 22.7655 19.1314ZM19.3124 18.2658C19.2499 18.2658 19.1968 18.3158 19.1968 18.3814V18.6596C19.1968 18.7221 19.2468 18.7752 19.3124 18.7752H22.7655C22.828 18.7752 22.8812 18.7252 22.8812 18.6596V18.3814C22.8812 18.3189 22.8312 18.2658 22.7655 18.2658H19.3124Z" fill="#333336"/>
<path d="M21.0406 20.4374C20.9406 20.4374 20.8594 20.3562 20.8594 20.2562V19.7687C20.8594 19.6687 20.9406 19.5874 21.0406 19.5874C21.1406 19.5874 21.2219 19.6687 21.2219 19.7687V20.2562C21.2187 20.3562 21.1406 20.4374 21.0406 20.4374Z" fill="#333336"/>
<path d="M20.7593 8.5374C21.1 8.29053 21.1968 7.82803 20.9843 7.46553C20.3 6.29678 18.6093 3.97803 15.9375 3.97803C13.0437 3.97803 11.4562 6.3124 10.8437 7.47803C10.6562 7.8374 10.7625 8.28115 11.0906 8.51865L11.0968 8.52178C11.4968 8.8124 12.0593 8.68115 12.2968 8.24678C12.8875 7.16553 14.1156 5.43115 15.9375 5.43115C17.7062 5.43115 18.9687 7.19365 19.575 8.2749C19.8125 8.6999 20.3656 8.82178 20.7593 8.5374Z" fill="#FFD632"/>
<path d="M20.2843 8.87168C20.2124 8.87168 20.1405 8.86543 20.0718 8.8498C19.7968 8.79043 19.5593 8.6123 19.4187 8.36543C18.8405 7.3373 17.6218 5.6123 15.9374 5.6123C14.1968 5.6123 13.0062 7.31855 12.453 8.33418C12.3155 8.5873 12.0749 8.76855 11.7937 8.83105C11.5155 8.89355 11.2218 8.83418 10.9905 8.66855L10.9843 8.66543C10.5843 8.37793 10.4562 7.83105 10.6843 7.39355C11.0062 6.78105 11.5655 5.89668 12.4155 5.15605C13.4468 4.25605 14.6312 3.7998 15.9374 3.7998C17.1468 3.7998 18.2843 4.25293 19.3249 5.1498C20.1812 5.8873 20.7843 6.76855 21.1405 7.37793C21.3999 7.82168 21.2812 8.38418 20.8655 8.68418C20.6937 8.80605 20.4905 8.87168 20.2843 8.87168ZM15.9374 5.25293C17.8062 5.25293 19.1155 7.09355 19.7312 8.1873C19.8187 8.34355 19.9718 8.45605 20.1468 8.49668C20.3218 8.53418 20.5062 8.49668 20.653 8.39043C20.9187 8.1998 20.9937 7.84043 20.828 7.55605C20.4843 6.97168 19.9062 6.1248 19.0874 5.41855C18.1155 4.58105 17.0562 4.15605 15.9343 4.15605C14.7187 4.15605 13.6124 4.58105 12.6499 5.4248C11.8437 6.12793 11.3093 6.9748 10.9999 7.55918C10.853 7.8373 10.9374 8.1873 11.1937 8.37168L11.1999 8.3748C11.3468 8.48105 11.5343 8.51855 11.7124 8.48105C11.8905 8.44043 12.0468 8.3248 12.1343 8.1623C12.7312 7.0748 14.0093 5.25293 15.9374 5.25293Z" fill="#333336"/>
<path d="M11.7531 7.7373L10.5 9.78105Z" fill="#FFD632"/>
<path d="M10.3452 9.68542L11.5988 7.64258L11.9051 7.83052L10.6515 9.87339L10.3452 9.68542Z" fill="#333336"/>
<path d="M20.1313 7.7373L21.3845 9.78105Z" fill="#FFD632"/>
<path d="M19.9766 7.831L20.2828 7.64307L21.5364 9.68591L21.2301 9.87385L19.9766 7.831Z" fill="#333336"/>
<path d="M10.7188 10.5062H8.6001C8.40947 10.5062 8.25635 10.353 8.25635 10.1624V9.79053C8.25635 9.5999 8.40947 9.44678 8.6001 9.44678H10.7188C10.9095 9.44678 11.0626 9.5999 11.0626 9.79053V10.1624C11.0626 10.353 10.9063 10.5062 10.7188 10.5062Z" fill="#D5D9CF"/>
<path d="M10.6999 10.6875H8.6124C8.31553 10.6875 8.07178 10.4438 8.07178 10.1469V9.80625C8.07178 9.50937 8.31553 9.26562 8.6124 9.26562H10.6999C10.9968 9.26562 11.2405 9.50937 11.2405 9.80625V10.1469C11.2405 10.4438 10.9999 10.6875 10.6999 10.6875ZM8.61553 9.62813C8.51553 9.62813 8.43428 9.70937 8.43428 9.80937V10.15C8.43428 10.25 8.51553 10.3313 8.61553 10.3313H10.703C10.803 10.3313 10.8843 10.25 10.8843 10.15V9.80937C10.8843 9.70937 10.803 9.62813 10.703 9.62813H8.61553Z" fill="#333336"/>
<path d="M23.2813 10.5062H21.1626C20.972 10.5062 20.8188 10.353 20.8188 10.1624V9.79053C20.8188 9.5999 20.972 9.44678 21.1626 9.44678H23.2813C23.472 9.44678 23.6251 9.5999 23.6251 9.79053V10.1624C23.6251 10.353 23.472 10.5062 23.2813 10.5062Z" fill="#D5D9CF"/>
<path d="M23.2624 10.6875H21.1749C20.878 10.6875 20.6343 10.4438 20.6343 10.1469V9.80625C20.6343 9.50937 20.878 9.26562 21.1749 9.26562H23.2624C23.5593 9.26562 23.803 9.50937 23.803 9.80625V10.1469C23.803 10.4438 23.5624 10.6875 23.2624 10.6875ZM21.178 9.62813C21.078 9.62813 20.9968 9.70937 20.9968 9.80937V10.15C20.9968 10.25 21.078 10.3313 21.178 10.3313H23.2655C23.3655 10.3313 23.4468 10.25 23.4468 10.15V9.80937C23.4468 9.70937 23.3655 9.62813 23.2655 9.62813H21.178Z" fill="#333336"/>
</svg>
